<svg xmlns="http://www.w3.org/2000/svg" width="1024" height="1024" viewBox="0 0 1024 1024" version="1.1"><path d="M 414.996 163.491 C 379.795 167.760, 352.263 182.748, 336.876 206.020 C 319.989 231.560, 310.464 271.132, 306.914 330.500 C 305.546 353.382, 306.228 427.866, 308.012 450.500 C 311.208 491.023, 318.562 525.028, 329.029 547.684 C 352.226 597.894, 406.894 617.866, 485.869 604.981 C 552.099 594.176, 628.371 555.010, 677.414 506.623 C 705.810 478.607, 723.165 448.901, 730.653 415.500 C 734.099 400.128, 735.037 369.577, 732.557 353.500 C 724.514 301.368, 685.080 251.974, 620.412 213.032 C 573.179 184.588, 522.746 167.829, 470 163.049 C 454.893 161.680, 428.156 161.895, 414.996 163.491 M 445.994 274.886 C 438.450 277.326, 434.247 281.023, 431.084 288 C 429.078 292.424, 429.044 294.052, 429.028 384.500 C 429.017 444.859, 429.367 477.781, 430.046 480.225 C 431.470 485.353, 436.737 491.930, 441.311 494.292 C 446.298 496.867, 452.814 497.541, 457.631 495.980 C 459.759 495.291, 494.344 475.101, 534.486 451.114 C 585.960 420.355, 608.858 406.131, 612.177 402.857 C 622.542 392.628, 621.978 377.917, 610.816 367.365 C 608.992 365.641, 593.100 355.555, 575.500 344.952 C 497.815 298.152, 465.253 278.660, 461.895 276.947 C 457.658 274.785, 449.553 273.735, 445.994 274.886 M 165 687.140 C 147.557 688.943, 132.915 699.603, 128.470 713.735 C 125.985 721.634, 126.789 733.802, 130.240 740.540 C 133.449 746.806, 140.527 753.437, 147.325 756.546 C 150.171 757.847, 159.250 760.764, 167.500 763.028 C 191.250 769.546, 196.004 772.443, 195.996 780.396 C 195.988 789.568, 189.117 795.092, 176.834 795.803 C 167.710 796.332, 161.901 794.608, 156.336 789.722 C 152.745 786.569, 149 780.290, 149 777.423 C 149 776.197, 148.415 775.920, 146.750 776.357 C 145.512 776.681, 139.624 778.173, 133.665 779.672 L 122.829 782.397 123.394 785.219 C 124.514 790.819, 129.604 799.527, 134.691 804.546 C 144.205 813.932, 156.744 818.412, 173.500 818.412 C 191.278 818.412, 203.111 813.912, 212.929 803.417 C 220.032 795.824, 223 788.818, 223 779.644 C 223 770.459, 220.750 764.050, 215.458 758.165 C 208.293 750.195, 202.130 747.259, 179.511 741.037 C 157.656 735.025, 154 732.522, 154 723.576 C 154 717.409, 155.665 714.722, 161.253 711.871 C 166.723 709.080, 179.367 709.554, 185.624 712.783 C 190.282 715.188, 194.703 719.967, 195.609 723.577 C 195.943 724.910, 196.425 726, 196.680 726 C 196.934 726, 202.459 724.357, 208.958 722.349 L 220.774 718.699 219.965 715.878 C 218.451 710.597, 213.651 702.933, 209.410 699.024 C 199.217 689.628, 182.975 685.282, 165 687.140 M 727.062 687.827 C 719.882 691.678, 717.759 702.861, 723.106 708.662 C 730.067 716.211, 743.159 715.707, 748.040 707.701 C 750.283 704.024, 750.618 696.780, 748.721 693.030 C 745.413 686.493, 734.457 683.861, 727.062 687.827 M 793.289 687.811 C 780.287 692.025, 773.991 700.469, 773.204 714.750 L 772.749 723 766.375 723 L 760 723 760 734 L 760 745 766.500 745 L 773 745 773 780.500 L 773 816 785.500 816 L 798 816 798 780.500 L 798 745 808.750 745.001 L 819.500 745.001 819.350 734.251 L 819.200 723.500 808.801 723.218 L 798.402 722.936 798.981 717.718 C 799.299 714.848, 799.939 711.892, 800.402 711.148 C 801.888 708.763, 807.760 707, 814.218 707 L 820.500 707.001 820.328 697.291 C 820.180 688.909, 819.906 687.482, 818.328 686.861 C 814.771 685.459, 798.659 686.071, 793.289 687.811 M 242 712 L 242 723 235 723 L 228 723 228 734 L 228 745 235 745 L 242 745 242 768.790 C 242 801.655, 243.943 808.136, 255.551 814 C 259.975 816.235, 261.720 816.500, 272 816.500 C 278.325 816.500, 284.288 816.177, 285.250 815.781 C 286.753 815.164, 287 813.644, 287 805.020 L 287 794.976 283.208 795.583 C 281.122 795.916, 277.525 795.680, 275.215 795.058 C 268.122 793.148, 267.555 791.113, 267.179 766.250 L 266.858 745 276.929 745 L 287 745 287 734 L 287 723 277 723 L 267 723 267 712 L 267 701 254.500 701 L 242 701 242 712 M 397.719 722.067 C 375.154 724.641, 359.072 744.605, 359.015 770.114 C 358.995 779.134, 360.497 786.328, 363.935 793.675 C 371.309 809.433, 385.730 818, 404.879 818 C 420.049 818, 431.569 813.610, 439.474 804.818 C 443.587 800.243, 448.624 791.290, 447.638 790.305 C 447.377 790.044, 442.455 789.342, 436.700 788.745 L 426.238 787.660 423.013 791.333 C 417.123 798.041, 405.682 799.588, 395.500 795.053 C 390.259 792.719, 387.352 789.433, 384.961 783.140 L 383.008 778 416.504 778 L 450 778 449.983 770.250 C 449.973 765.987, 449.333 759.516, 448.560 755.869 C 443.546 732.215, 423.808 719.092, 397.719 722.067 M 493.347 722.095 C 490.512 722.568, 485.562 723.939, 482.347 725.140 C 474.573 728.045, 465.067 737.364, 462.671 744.428 C 459.654 753.326, 459.227 753, 473.892 753 L 486.783 753 487.418 750.469 C 488.202 747.346, 493.087 744.260, 498.539 743.442 C 507.428 742.109, 516.919 747.448, 519.004 754.956 C 521.058 762.350, 521.801 762, 504.049 762 C 482.085 762, 473.974 764.003, 466.162 771.358 C 460.386 776.796, 458.535 781.442, 458.535 790.500 C 458.535 799.936, 460.479 804.490, 467.038 810.415 C 472.325 815.192, 476.290 816.840, 485.181 817.956 C 498.207 819.592, 510.372 815.896, 517.069 808.269 L 520 804.930 520 810.465 L 520 816 532.059 816 L 544.118 816 543.809 781.250 L 543.500 746.500 540.710 740.818 C 535.712 730.642, 525.092 724.008, 510.678 722.058 C 501.916 720.873, 500.644 720.876, 493.347 722.095 M 606.500 721.977 C 597.184 723.484, 591.727 726.634, 586.911 733.281 L 584 737.300 584 730.150 L 584 723 572.500 723 L 561 723 561 769.500 L 561 816 573.500 816 L 586 816 586 786.712 C 586 758.315, 586.068 757.289, 588.250 753.006 C 591.047 747.514, 597.162 744, 603.923 744 C 610.193 744, 614.948 746.760, 617.725 752.013 C 619.945 756.210, 620 757.040, 620 786.157 L 620 816 633 816 L 646 816 646 786.712 C 646 758.315, 646.068 757.289, 648.250 753.006 C 651.499 746.626, 657.346 743.715, 665.878 744.228 C 671.704 744.578, 672.541 744.922, 675.555 748.211 C 677.369 750.191, 679.334 753.541, 679.921 755.656 C 680.561 757.961, 680.991 770.812, 680.994 787.750 L 681 816 693.750 816.001 L 706.500 816.002 705.940 781.251 C 705.345 744.349, 705.148 742.778, 700.118 734.847 C 694.225 725.556, 686.364 721.834, 672.500 721.773 C 665.635 721.743, 662.176 722.242, 657.921 723.875 C 651.844 726.207, 644.486 731.894, 643.491 735.028 C 642.695 737.536, 641.312 737.559, 640.524 735.076 C 639.338 731.340, 632.335 725.271, 627.367 723.674 C 621.030 721.638, 612.754 720.965, 606.500 721.977 M 341.148 723.913 C 334.588 726.179, 331.466 728.427, 327.250 733.921 L 324 738.155 324 730.578 L 324 723 312 723 L 300 723 300 769.500 L 300 816 313 816 L 326 816 326 788.565 C 326 771.612, 326.406 760.055, 327.064 758.315 C 329.860 750.913, 337.855 747, 350.182 747 L 357 747 357 734.500 L 357 722 351.750 722.033 C 348.863 722.051, 344.092 722.897, 341.148 723.913 M 723.587 723.859 C 723.295 724.332, 723.156 745.257, 723.278 770.359 L 723.500 816 736.250 816 L 749 816 749 769.500 L 749 723 736.559 723 C 729.716 723, 723.879 723.387, 723.587 723.859 M 824.303 724.250 C 824.587 724.938, 832.991 746.167, 842.977 771.428 L 861.135 817.355 858.302 822.894 C 854.719 829.902, 848.802 833.855, 840.639 834.698 L 835 835.280 835 844.595 L 835 853.909 838.624 854.589 C 840.618 854.963, 845.361 855.008, 849.165 854.689 C 861.233 853.678, 871.733 847.291, 877.426 837.500 C 879.357 834.178, 919.249 732.456, 921.458 725.220 L 922.154 722.939 909.420 723.220 L 896.687 723.500 885.496 755.307 L 874.306 787.114 865.254 761.807 C 860.275 747.888, 855.145 733.462, 853.854 729.750 L 851.507 723 837.646 723 C 826.949 723, 823.904 723.285, 824.303 724.250 M 397.030 743.113 C 392.423 744.951, 388.276 748.881, 386.134 753.437 C 384.960 755.935, 384 758.433, 384 758.989 C 384 759.637, 391.353 760, 404.500 760 C 427.555 760, 426.726 760.334, 423.110 752.500 C 420.974 747.872, 417.688 744.583, 413.685 743.067 C 410.216 741.752, 400.370 741.780, 397.030 743.113 M 494.733 778.088 C 489.119 779.411, 486.144 781.788, 484.897 785.948 C 483.509 790.582, 485.534 795.191, 489.967 797.483 C 494.824 799.995, 503.764 799.446, 510.054 796.250 C 516.327 793.063, 518.581 789.746, 519.567 782.250 L 520.258 777 509.379 777.100 C 503.395 777.156, 496.805 777.600, 494.733 778.088" stroke="none" fill="#ee2b28" fill-rule="evenodd"/><path d="M 0 512.001 L 0 1024.002 512.250 1023.751 L 1024.500 1023.500 1024.751 511.750 L 1025.002 0 512.501 0 L 0 0 0 512.001 M 0.496 512.500 C 0.496 794.100, 0.610 909.151, 0.750 768.168 C 0.890 627.186, 0.890 396.786, 0.750 256.168 C 0.610 115.551, 0.496 230.900, 0.496 512.500 M 414.996 163.491 C 379.795 167.760, 352.263 182.748, 336.876 206.020 C 319.989 231.560, 310.464 271.132, 306.914 330.500 C 305.546 353.382, 306.228 427.866, 308.012 450.500 C 311.208 491.023, 318.562 525.028, 329.029 547.684 C 352.226 597.894, 406.894 617.866, 485.869 604.981 C 552.099 594.176, 628.371 555.010, 677.414 506.623 C 705.810 478.607, 723.165 448.901, 730.653 415.500 C 734.099 400.128, 735.037 369.577, 732.557 353.500 C 724.514 301.368, 685.080 251.974, 620.412 213.032 C 573.179 184.588, 522.746 167.829, 470 163.049 C 454.893 161.680, 428.156 161.895, 414.996 163.491 M 445.994 274.886 C 438.450 277.326, 434.247 281.023, 431.084 288 C 429.078 292.424, 429.044 294.052, 429.028 384.500 C 429.017 444.859, 429.367 477.781, 430.046 480.225 C 431.470 485.353, 436.737 491.930, 441.311 494.292 C 446.298 496.867, 452.814 497.541, 457.631 495.980 C 459.759 495.291, 494.344 475.101, 534.486 451.114 C 585.960 420.355, 608.858 406.131, 612.177 402.857 C 622.542 392.628, 621.978 377.917, 610.816 367.365 C 608.992 365.641, 593.100 355.555, 575.500 344.952 C 497.815 298.152, 465.253 278.660, 461.895 276.947 C 457.658 274.785, 449.553 273.735, 445.994 274.886 M 165 687.140 C 147.557 688.943, 132.915 699.603, 128.470 713.735 C 125.985 721.634, 126.789 733.802, 130.240 740.540 C 133.449 746.806, 140.527 753.437, 147.325 756.546 C 150.171 757.847, 159.250 760.764, 167.500 763.028 C 191.250 769.546, 196.004 772.443, 195.996 780.396 C 195.988 789.568, 189.117 795.092, 176.834 795.803 C 167.710 796.332, 161.901 794.608, 156.336 789.722 C 152.745 786.569, 149 780.290, 149 777.423 C 149 776.197, 148.415 775.920, 146.750 776.357 C 145.512 776.681, 139.624 778.173, 133.665 779.672 L 122.829 782.397 123.394 785.219 C 124.514 790.819, 129.604 799.527, 134.691 804.546 C 144.205 813.932, 156.744 818.412, 173.500 818.412 C 191.278 818.412, 203.111 813.912, 212.929 803.417 C 220.032 795.824, 223 788.818, 223 779.644 C 223 770.459, 220.750 764.050, 215.458 758.165 C 208.293 750.195, 202.130 747.259, 179.511 741.037 C 157.656 735.025, 154 732.522, 154 723.576 C 154 717.409, 155.665 714.722, 161.253 711.871 C 166.723 709.080, 179.367 709.554, 185.624 712.783 C 190.282 715.188, 194.703 719.967, 195.609 723.577 C 195.943 724.910, 196.425 726, 196.680 726 C 196.934 726, 202.459 724.357, 208.958 722.349 L 220.774 718.699 219.965 715.878 C 218.451 710.597, 213.651 702.933, 209.410 699.024 C 199.217 689.628, 182.975 685.282, 165 687.140 M 727.062 687.827 C 719.882 691.678, 717.759 702.861, 723.106 708.662 C 730.067 716.211, 743.159 715.707, 748.040 707.701 C 750.283 704.024, 750.618 696.780, 748.721 693.030 C 745.413 686.493, 734.457 683.861, 727.062 687.827 M 793.289 687.811 C 780.287 692.025, 773.991 700.469, 773.204 714.750 L 772.749 723 766.375 723 L 760 723 760 734 L 760 745 766.500 745 L 773 745 773 780.500 L 773 816 785.500 816 L 798 816 798 780.500 L 798 745 808.750 745.001 L 819.500 745.001 819.350 734.251 L 819.200 723.500 808.801 723.218 L 798.402 722.936 798.981 717.718 C 799.299 714.848, 799.939 711.892, 800.402 711.148 C 801.888 708.763, 807.760 707, 814.218 707 L 820.500 707.001 820.328 697.291 C 820.180 688.909, 819.906 687.482, 818.328 686.861 C 814.771 685.459, 798.659 686.071, 793.289 687.811 M 242 712 L 242 723 235 723 L 228 723 228 734 L 228 745 235 745 L 242 745 242 768.790 C 242 801.655, 243.943 808.136, 255.551 814 C 259.975 816.235, 261.720 816.500, 272 816.500 C 278.325 816.500, 284.288 816.177, 285.250 815.781 C 286.753 815.164, 287 813.644, 287 805.020 L 287 794.976 283.208 795.583 C 281.122 795.916, 277.525 795.680, 275.215 795.058 C 268.122 793.148, 267.555 791.113, 267.179 766.250 L 266.858 745 276.929 745 L 287 745 287 734 L 287 723 277 723 L 267 723 267 712 L 267 701 254.500 701 L 242 701 242 712 M 397.719 722.067 C 375.154 724.641, 359.072 744.605, 359.015 770.114 C 358.995 779.134, 360.497 786.328, 363.935 793.675 C 371.309 809.433, 385.730 818, 404.879 818 C 420.049 818, 431.569 813.610, 439.474 804.818 C 443.587 800.243, 448.624 791.290, 447.638 790.305 C 447.377 790.044, 442.455 789.342, 436.700 788.745 L 426.238 787.660 423.013 791.333 C 417.123 798.041, 405.682 799.588, 395.500 795.053 C 390.259 792.719, 387.352 789.433, 384.961 783.140 L 383.008 778 416.504 778 L 450 778 449.983 770.250 C 449.973 765.987, 449.333 759.516, 448.560 755.869 C 443.546 732.215, 423.808 719.092, 397.719 722.067 M 493.347 722.095 C 490.512 722.568, 485.562 723.939, 482.347 725.140 C 474.573 728.045, 465.067 737.364, 462.671 744.428 C 459.654 753.326, 459.227 753, 473.892 753 L 486.783 753 487.418 750.469 C 488.202 747.346, 493.087 744.260, 498.539 743.442 C 507.428 742.109, 516.919 747.448, 519.004 754.956 C 521.058 762.350, 521.801 762, 504.049 762 C 482.085 762, 473.974 764.003, 466.162 771.358 C 460.386 776.796, 458.535 781.442, 458.535 790.500 C 458.535 799.936, 460.479 804.490, 467.038 810.415 C 472.325 815.192, 476.290 816.840, 485.181 817.956 C 498.207 819.592, 510.372 815.896, 517.069 808.269 L 520 804.930 520 810.465 L 520 816 532.059 816 L 544.118 816 543.809 781.250 L 543.500 746.500 540.710 740.818 C 535.712 730.642, 525.092 724.008, 510.678 722.058 C 501.916 720.873, 500.644 720.876, 493.347 722.095 M 606.500 721.977 C 597.184 723.484, 591.727 726.634, 586.911 733.281 L 584 737.300 584 730.150 L 584 723 572.500 723 L 561 723 561 769.500 L 561 816 573.500 816 L 586 816 586 786.712 C 586 758.315, 586.068 757.289, 588.250 753.006 C 591.047 747.514, 597.162 744, 603.923 744 C 610.193 744, 614.948 746.760, 617.725 752.013 C 619.945 756.210, 620 757.040, 620 786.157 L 620 816 633 816 L 646 816 646 786.712 C 646 758.315, 646.068 757.289, 648.250 753.006 C 651.499 746.626, 657.346 743.715, 665.878 744.228 C 671.704 744.578, 672.541 744.922, 675.555 748.211 C 677.369 750.191, 679.334 753.541, 679.921 755.656 C 680.561 757.961, 680.991 770.812, 680.994 787.750 L 681 816 693.750 816.001 L 706.500 816.002 705.940 781.251 C 705.345 744.349, 705.148 742.778, 700.118 734.847 C 694.225 725.556, 686.364 721.834, 672.500 721.773 C 665.635 721.743, 662.176 722.242, 657.921 723.875 C 651.844 726.207, 644.486 731.894, 643.491 735.028 C 642.695 737.536, 641.312 737.559, 640.524 735.076 C 639.338 731.340, 632.335 725.271, 627.367 723.674 C 621.030 721.638, 612.754 720.965, 606.500 721.977 M 341.148 723.913 C 334.588 726.179, 331.466 728.427, 327.250 733.921 L 324 738.155 324 730.578 L 324 723 312 723 L 300 723 300 769.500 L 300 816 313 816 L 326 816 326 788.565 C 326 771.612, 326.406 760.055, 327.064 758.315 C 329.860 750.913, 337.855 747, 350.182 747 L 357 747 357 734.500 L 357 722 351.750 722.033 C 348.863 722.051, 344.092 722.897, 341.148 723.913 M 723.587 723.859 C 723.295 724.332, 723.156 745.257, 723.278 770.359 L 723.500 816 736.250 816 L 749 816 749 769.500 L 749 723 736.559 723 C 729.716 723, 723.879 723.387, 723.587 723.859 M 824.303 724.250 C 824.587 724.938, 832.991 746.167, 842.977 771.428 L 861.135 817.355 858.302 822.894 C 854.719 829.902, 848.802 833.855, 840.639 834.698 L 835 835.280 835 844.595 L 835 853.909 838.624 854.589 C 840.618 854.963, 845.361 855.008, 849.165 854.689 C 861.233 853.678, 871.733 847.291, 877.426 837.500 C 879.357 834.178, 919.249 732.456, 921.458 725.220 L 922.154 722.939 909.420 723.220 L 896.687 723.500 885.496 755.307 L 874.306 787.114 865.254 761.807 C 860.275 747.888, 855.145 733.462, 853.854 729.750 L 851.507 723 837.646 723 C 826.949 723, 823.904 723.285, 824.303 724.250 M 397.030 743.113 C 392.423 744.951, 388.276 748.881, 386.134 753.437 C 384.960 755.935, 384 758.433, 384 758.989 C 384 759.637, 391.353 760, 404.500 760 C 427.555 760, 426.726 760.334, 423.110 752.500 C 420.974 747.872, 417.688 744.583, 413.685 743.067 C 410.216 741.752, 400.370 741.780, 397.030 743.113 M 494.733 778.088 C 489.119 779.411, 486.144 781.788, 484.897 785.948 C 483.509 790.582, 485.534 795.191, 489.967 797.483 C 494.824 799.995, 503.764 799.446, 510.054 796.250 C 516.327 793.063, 518.581 789.746, 519.567 782.250 L 520.258 777 509.379 777.100 C 503.395 777.156, 496.805 777.600, 494.733 778.088" stroke="none" fill="#f3f0e8" fill-rule="evenodd"/></svg>